# xmcd
#
# Track frame offsets:
# 150
# 37895
# 96123
# 132201
# 171713
# 208602
# 250843
# 281782
#
# Disc length: 4620 seconds
#
#
# Revision: 0
# Processed by: cddbd v1.5.2PL0 Copyright (c) Steve Scherf et al.
# Submitted via: Nero 7, 11, 10, 0 
#
DISCID=73120a08
DTITLE=Stan West - Live At Mr. Mikes
DYEAR=2001
DGENRE=Blues
TTITLE0=Wee Wee Baby
TTITLE1=Going Down Slow
TTITLE2=Honey Hush
TTITLE3=Little Red Rooster
TTITLE4=Rock Me
TTITLE5=Everyday I Have The Blues
TTITLE6=Hoochie Coochie Man
TTITLE7=Texas Flood
EXTD=
EXTT0=Wee Wee Baby
EXTT1=Going Down Slow
EXTT2=Honey Hush
EXTT3=Little Red Rooster
EXTT4=Rock Me
EXTT5=Everyday I Have The Blues
EXTT6=Hoochie Coochie Man
EXTT7=Texas Flood
PLAYORDER=
